# https://github.com/mikedh/trimesh
v -0.01216129 -0.01576645 -0.07749990
v -0.01496788 -0.01705981 -0.07749990
v -0.01502025 -0.01729774 -0.07749990
v -0.01504659 -0.01753994 -0.07749990
v -0.01451475 -0.01620513 -0.07749990
v -0.01466219 -0.01639908 -0.07749990
v -0.01478779 -0.01660783 -0.07749990
v -0.01055319 -0.01753994 -0.07749990
v -0.01063190 -0.01705981 -0.07749990
v -0.01070969 -0.01682894 -0.07749990
v -0.01489009 -0.01682894 -0.07749990
v -0.01057953 -0.01729774 -0.07749990
v -0.01081199 -0.01660783 -0.07749990
v -0.01093759 -0.01639908 -0.07749990
v -0.01108503 -0.01620513 -0.07749990
v -0.01374464 -0.01561971 -0.07749990
v -0.01395989 -0.01573382 -0.07749990
v -0.01416153 -0.01587054 -0.07749990
v -0.01434721 -0.01602826 -0.07749990
v -0.01125257 -0.01602826 -0.07749990
v -0.01143825 -0.01587054 -0.07749990
v -0.01163989 -0.01573382 -0.07749990
v -0.01185514 -0.01561971 -0.07749990
v -0.01208146 -0.01552953 -0.07749990
v -0.01231621 -0.01546436 -0.07749990
v -0.01279989 -0.01541175 -0.07749990
v -0.01304316 -0.01542494 -0.07749990
v -0.01328357 -0.01546436 -0.07749990
v -0.01351832 -0.01552953 -0.07749990
v -0.01255662 -0.01542494 -0.07749990
v -0.01057953 -0.01729774 -0.07249991
v -0.01055319 -0.01753994 -0.07249991
v -0.01070969 -0.01682894 -0.07249991
v -0.01063190 -0.01705981 -0.07249991
v -0.01108503 -0.01620513 -0.07249991
v -0.01093759 -0.01639908 -0.07249991
v -0.01081199 -0.01660783 -0.07249991
v -0.01504659 -0.01753994 -0.07249991
v -0.01502025 -0.01729774 -0.07249991
v -0.01489009 -0.01682894 -0.07249991
v -0.01478779 -0.01660783 -0.07249991
v -0.01466219 -0.01639908 -0.07249991
v -0.01451475 -0.01620513 -0.07249991
v -0.01231621 -0.01546436 -0.07249991
v -0.01208146 -0.01552953 -0.07249991
v -0.01185514 -0.01561971 -0.07249991
v -0.01143825 -0.01587054 -0.07249991
v -0.01125257 -0.01602826 -0.07249991
v -0.01496788 -0.01705981 -0.07249991
v -0.01163989 -0.01573382 -0.07249991
v -0.01374464 -0.01561971 -0.07249991
v -0.01351832 -0.01552953 -0.07249991
v -0.01328357 -0.01546436 -0.07249991
v -0.01304316 -0.01542494 -0.07249991
v -0.01434721 -0.01602826 -0.07249991
v -0.01416153 -0.01587054 -0.07249991
v -0.01395989 -0.01573382 -0.07249991
v -0.01255662 -0.01542494 -0.07249991
v -0.01279989 -0.01541175 -0.07249991
v -0.01185514 -0.06665380 -0.07749990
v -0.01163989 -0.06653968 -0.07749990
v -0.01143825 -0.06640296 -0.07749990
v -0.01125257 -0.06624524 -0.07749990
v -0.01108503 -0.06606837 -0.07749990
v -0.01093759 -0.06587442 -0.07749990
v -0.01504659 -0.06473357 -0.07749990
v -0.01502025 -0.06497576 -0.07749990
v -0.01496788 -0.06521369 -0.07749990
v -0.01489009 -0.06544456 -0.07749990
v -0.01208146 -0.06674397 -0.07749990
v -0.01081199 -0.06566567 -0.07749990
v -0.01070969 -0.06544456 -0.07749990
v -0.01057953 -0.06497576 -0.07749990
v -0.01055319 -0.06473357 -0.07749990
v -0.01478779 -0.06566567 -0.07749990
v -0.01451475 -0.06606837 -0.07749990
v -0.01434721 -0.06624524 -0.07749990
v -0.01416153 -0.06640296 -0.07749990
v -0.01063190 -0.06521369 -0.07749990
v -0.01466219 -0.06587442 -0.07749990
v -0.01351832 -0.06674397 -0.07749990
v -0.01328357 -0.06680915 -0.07749990
v -0.01304316 -0.06684856 -0.07749990
v -0.01395989 -0.06653968 -0.07749990
v -0.01374464 -0.06665380 -0.07749990
v -0.01279989 -0.06686175 -0.07749990
v -0.01255662 -0.06684856 -0.07749990
v -0.01231621 -0.06680915 -0.07749990
v -0.01055319 -0.06473357 -0.07249991
v -0.01057953 -0.06497576 -0.07249991
v -0.01063190 -0.06521369 -0.07249991
v -0.01070969 -0.06544456 -0.07249991
v -0.01081199 -0.06566567 -0.07249991
v -0.01093759 -0.06587442 -0.07249991
v -0.01108503 -0.06606837 -0.07249991
v -0.01125257 -0.06624524 -0.07249991
v -0.01143825 -0.06640296 -0.07249991
v -0.01163989 -0.06653968 -0.07249991
v -0.01185514 -0.06665380 -0.07249991
v -0.01208146 -0.06674397 -0.07249991
v -0.01231621 -0.06680915 -0.07249991
v -0.01478779 -0.06566567 -0.07249991
v -0.01489009 -0.06544456 -0.07249991
v -0.01434721 -0.06624524 -0.07249991
v -0.01451475 -0.06606837 -0.07249991
v -0.01496788 -0.06521369 -0.07249991
v -0.01504659 -0.06473357 -0.07249991
v -0.01255662 -0.06684856 -0.07249991
v -0.01279989 -0.06686175 -0.07249991
v -0.01466219 -0.06587442 -0.07249991
v -0.01502025 -0.06497576 -0.07249991
v -0.01304316 -0.06684856 -0.07249991
v -0.01328357 -0.06680915 -0.07249991
v -0.01351832 -0.06674397 -0.07249991
v -0.01374464 -0.06665380 -0.07249991
v -0.01395989 -0.06653968 -0.07249991
v -0.01416153 -0.06640296 -0.07249991
f 68 67 69
f 40 49 41
f 32 89 8
f 89 74 8
f 66 107 38
f 38 4 66
f 4 69 66
f 69 67 66
f 107 66 111
f 111 66 67
f 96 97 63
f 63 97 62
f 82 83 112
f 112 113 82
f 50 46 48
f 48 47 50
f 73 74 89
f 89 90 73
f 91 73 90
f 79 73 91
f 79 91 72
f 72 91 92
f 74 73 72
f 72 73 79
f 14 36 37
f 37 13 14
f 106 111 67
f 67 68 106
f 69 103 106
f 106 68 69
f 110 106 102
f 102 106 103
f 77 78 117
f 117 104 77
f 85 81 114
f 115 85 114
f 82 113 114
f 114 81 82
f 105 76 77
f 77 104 105
f 80 76 105
f 110 80 105
f 55 51 57
f 57 56 55
f 41 42 7
f 7 42 6
f 7 40 41
f 11 40 7
f 3 4 38
f 38 39 3
f 43 41 55
f 43 42 41
f 109 112 86
f 86 112 83
f 108 86 87
f 109 86 108
f 108 87 88
f 88 101 108
f 97 98 61
f 62 97 61
f 61 98 99
f 99 60 61
f 96 63 95
f 63 64 95
f 95 64 65
f 65 94 95
f 48 35 15
f 20 48 15
f 15 35 36
f 36 14 15
f 75 103 69
f 75 102 103
f 110 102 75
f 75 80 110
f 77 82 84
f 84 78 77
f 82 81 84
f 84 81 85
f 25 30 58
f 44 25 58
f 44 45 24
f 24 25 44
f 24 45 46
f 46 23 24
f 46 50 22
f 22 23 46
f 17 57 51
f 17 51 16
f 56 57 17
f 17 18 56
f 55 56 19
f 56 18 19
f 2 40 11
f 49 40 2
f 2 39 49
f 2 3 39
f 70 83 62
f 70 86 83
f 88 87 70
f 62 61 70
f 87 86 70
f 70 61 60
f 70 101 88
f 70 100 101
f 70 60 99
f 99 100 70
f 96 95 93
f 93 91 96
f 92 91 93
f 93 95 94
f 93 72 92
f 93 71 72
f 65 71 93
f 93 94 65
f 32 8 31
f 8 12 31
f 31 12 9
f 9 34 31
f 116 85 115
f 116 84 85
f 116 117 78
f 78 84 116
f 38 107 54
f 54 89 32
f 54 97 96
f 55 41 54
f 54 100 99
f 54 90 89
f 99 98 54
f 46 45 54
f 48 46 54
f 32 48 54
f 111 106 54
f 54 116 115
f 107 111 54
f 54 52 51
f 115 114 54
f 54 39 38
f 54 91 90
f 104 117 54
f 54 112 109
f 41 49 54
f 54 51 55
f 54 98 97
f 113 112 54
f 54 45 44
f 49 39 54
f 54 105 104
f 109 108 54
f 96 91 54
f 54 106 110
f 54 58 59
f 54 114 113
f 110 105 54
f 53 52 54
f 54 108 101
f 101 100 54
f 44 58 54
f 117 116 54
f 59 58 26
f 26 58 30
f 26 54 59
f 27 54 26
f 53 54 28
f 28 54 27
f 21 47 48
f 21 48 20
f 21 50 47
f 21 22 50
f 6 42 5
f 42 43 5
f 5 43 55
f 55 19 5
f 33 48 32
f 33 35 48
f 37 36 33
f 36 35 33
f 32 31 33
f 33 31 34
f 33 13 37
f 33 10 13
f 33 34 9
f 9 10 33
f 51 52 29
f 16 51 29
f 29 52 53
f 53 28 29
f 25 24 1
f 1 24 23
f 1 69 4
f 65 64 1
f 1 7 6
f 1 63 62
f 1 8 74
f 1 83 82
f 1 82 77
f 62 83 1
f 20 15 1
f 1 12 8
f 77 76 1
f 4 3 1
f 1 71 65
f 1 76 80
f 6 5 1
f 74 72 1
f 1 64 63
f 1 14 13
f 1 2 11
f 23 22 1
f 1 75 69
f 11 7 1
f 1 21 20
f 72 71 1
f 1 15 14
f 9 12 1
f 80 75 1
f 13 10 1
f 1 19 18
f 3 2 1
f 1 10 9
f 22 21 1
f 1 5 19
f 18 17 1
f 1 17 16
f 1 29 28
f 1 28 27
f 16 29 1
f 1 26 30
f 1 30 25
f 27 26 1
