# https://github.com/mikedh/trimesh
v -0.01044680 0.01753996 -0.07749990
v -0.01042046 0.01729776 -0.07749990
v -0.01036809 0.01705983 -0.07749990
v -0.01029030 0.01682896 -0.07749990
v -0.01018800 0.01660785 -0.07749990
v -0.01006240 0.01639910 -0.07749990
v -0.00956174 0.01587056 -0.07749990
v -0.00936010 0.01573384 -0.07749990
v -0.00991496 0.01620515 -0.07749990
v -0.00974742 0.01602828 -0.07749990
v -0.00914485 0.01561973 -0.07749990
v -0.00603211 0.01705983 -0.07749990
v -0.00597974 0.01729776 -0.07749990
v -0.00595340 0.01753996 -0.07749990
v -0.00891853 0.01552955 -0.07749990
v -0.00868378 0.01546437 -0.07749990
v -0.00665278 0.01602828 -0.07749990
v -0.00648524 0.01620515 -0.07749990
v -0.00633780 0.01639910 -0.07749990
v -0.00844337 0.01542496 -0.07749990
v -0.00820010 0.01541177 -0.07749990
v -0.00795683 0.01542496 -0.07749990
v -0.00771642 0.01546437 -0.07749990
v -0.00748167 0.01552955 -0.07749990
v -0.00725535 0.01561973 -0.07749990
v -0.00704010 0.01573384 -0.07749990
v -0.00683846 0.01587056 -0.07749990
v -0.00621220 0.01660785 -0.07749990
v -0.00610990 0.01682896 -0.07749990
v -0.00648524 0.01620515 -0.07249991
v -0.00665278 0.01602828 -0.07249991
v -0.00621220 0.01660785 -0.07249991
v -0.00633780 0.01639910 -0.07249991
v -0.00683846 0.01587056 -0.07249991
v -0.00704010 0.01573384 -0.07249991
v -0.00725535 0.01561973 -0.07249991
v -0.00974742 0.01602828 -0.07249991
v -0.00991496 0.01620515 -0.07249991
v -0.01006240 0.01639910 -0.07249991
v -0.01018800 0.01660785 -0.07249991
v -0.01029030 0.01682896 -0.07249991
v -0.01036809 0.01705983 -0.07249991
v -0.01042046 0.01729776 -0.07249991
v -0.01044680 0.01753996 -0.07249991
v -0.00748167 0.01552955 -0.07249991
v -0.00936010 0.01573384 -0.07249991
v -0.00956174 0.01587056 -0.07249991
v -0.00595340 0.01753996 -0.07249991
v -0.00597974 0.01729776 -0.07249991
v -0.00603211 0.01705983 -0.07249991
v -0.00771642 0.01546437 -0.07249991
v -0.00795683 0.01542496 -0.07249991
v -0.00610990 0.01682896 -0.07249991
v -0.00891853 0.01552955 -0.07249991
v -0.00914485 0.01561973 -0.07249991
v -0.00868378 0.01546437 -0.07249991
v -0.00820010 0.01541177 -0.07249991
v -0.00844337 0.01542496 -0.07249991
v -0.00957550 0.06315978 -0.07249991
v -0.01044680 0.06473358 -0.07749990
v -0.01042046 0.06497578 -0.07749990
v -0.01036809 0.06521371 -0.07749990
v -0.00936010 0.06653970 -0.07749990
v -0.00956174 0.06640298 -0.07749990
v -0.00991496 0.06606839 -0.07749990
v -0.01006240 0.06587444 -0.07749990
v -0.01018800 0.06566569 -0.07749990
v -0.01029030 0.06544458 -0.07749990
v -0.00914485 0.06665382 -0.07749990
v -0.00974742 0.06624526 -0.07749990
v -0.00621220 0.06566569 -0.07749990
v -0.00633780 0.06587444 -0.07749990
v -0.00648524 0.06606839 -0.07749990
v -0.00868378 0.06680917 -0.07749990
v -0.00891853 0.06674399 -0.07749990
v -0.00595340 0.06473358 -0.07749990
v -0.00610990 0.06544458 -0.07749990
v -0.00597974 0.06497578 -0.07749990
v -0.00603211 0.06521371 -0.07749990
v -0.00748167 0.06674399 -0.07749990
v -0.00771642 0.06680917 -0.07749990
v -0.00795683 0.06684858 -0.07749990
v -0.00820010 0.06686177 -0.07749990
v -0.00844337 0.06684858 -0.07749990
v -0.00665278 0.06624526 -0.07749990
v -0.00683846 0.06640298 -0.07749990
v -0.00704010 0.06653970 -0.07749990
v -0.00725535 0.06665382 -0.07749990
v -0.01006240 0.06587444 -0.07249991
v -0.00991496 0.06606839 -0.07249991
v -0.00974742 0.06624526 -0.07249991
v -0.01044680 0.06473358 -0.07249991
v -0.01042046 0.06497578 -0.07249991
v -0.01036809 0.06521371 -0.07249991
v -0.00956174 0.06640298 -0.07249991
v -0.01029030 0.06544458 -0.07249991
v -0.01018800 0.06566569 -0.07249991
v -0.00936010 0.06653970 -0.07249991
v -0.00914485 0.06665382 -0.07249991
v -0.00891853 0.06674399 -0.07249991
v -0.00595340 0.06473358 -0.07249991
v -0.00771642 0.06680917 -0.07249991
v -0.00748167 0.06674399 -0.07249991
v -0.00610990 0.06544458 -0.07249991
v -0.00603211 0.06521371 -0.07249991
v -0.00597974 0.06497578 -0.07249991
v -0.00820010 0.06686177 -0.07249991
v -0.00795683 0.06684858 -0.07249991
v -0.00725535 0.06665382 -0.07249991
v -0.00704010 0.06653970 -0.07249991
v -0.00665278 0.06624526 -0.07249991
v -0.00648524 0.06606839 -0.07249991
v -0.00683846 0.06640298 -0.07249991
v -0.00633780 0.06587444 -0.07249991
v -0.00621220 0.06566569 -0.07249991
v -0.00868378 0.06680917 -0.07249991
v -0.00844337 0.06684858 -0.07249991
f 13 12 14
f 75 99 100
f 69 99 75
f 92 60 1
f 1 44 92
f 97 66 67
f 89 66 97
f 67 68 97
f 97 68 96
f 93 60 92
f 93 61 60
f 74 75 116
f 116 75 100
f 116 84 74
f 117 84 116
f 34 27 17
f 17 31 34
f 29 12 53
f 53 12 50
f 71 115 104
f 104 77 71
f 37 38 10
f 10 38 9
f 96 68 94
f 94 68 62
f 61 93 94
f 62 61 94
f 86 87 113
f 87 110 113
f 109 87 88
f 109 110 87
f 81 82 108
f 102 81 108
f 98 99 69
f 69 63 98
f 98 63 64
f 64 95 98
f 91 64 70
f 91 95 64
f 14 48 13
f 48 49 13
f 13 49 50
f 50 12 13
f 21 22 52
f 57 21 52
f 52 22 23
f 23 51 52
f 45 24 25
f 25 36 45
f 23 24 45
f 45 51 23
f 25 26 35
f 35 36 25
f 27 34 35
f 35 26 27
f 76 48 14
f 76 101 48
f 106 101 76
f 76 78 106
f 104 105 79
f 79 77 104
f 79 105 106
f 106 78 79
f 112 114 72
f 72 73 112
f 72 114 115
f 115 71 72
f 72 87 86
f 86 85 72
f 72 85 73
f 72 63 69
f 70 64 72
f 69 75 72
f 64 63 72
f 72 75 74
f 74 84 72
f 72 84 83
f 83 82 72
f 72 80 88
f 72 82 81
f 81 80 72
f 88 87 72
f 44 1 43
f 43 1 2
f 43 2 3
f 3 42 43
f 3 2 4
f 2 1 4
f 1 10 4
f 4 10 5
f 41 42 4
f 4 42 3
f 37 10 47
f 47 10 7
f 7 8 47
f 47 8 46
f 47 46 38
f 47 38 37
f 55 8 11
f 46 8 55
f 112 73 111
f 73 85 111
f 86 113 111
f 111 85 86
f 103 81 102
f 103 80 81
f 103 109 88
f 88 80 103
f 107 84 117
f 83 84 107
f 107 108 82
f 107 82 83
f 90 66 89
f 90 65 66
f 90 91 70
f 70 65 90
f 30 31 17
f 17 18 30
f 30 18 19
f 30 19 33
f 17 29 28
f 28 18 17
f 19 18 28
f 29 53 28
f 53 32 28
f 28 32 33
f 33 19 28
f 40 4 5
f 41 4 40
f 9 38 6
f 38 39 6
f 39 40 6
f 6 40 5
f 5 10 6
f 6 10 9
f 77 79 20
f 17 27 20
f 60 61 20
f 20 68 67
f 62 68 20
f 20 1 60
f 20 10 1
f 20 61 62
f 66 65 20
f 78 76 20
f 20 22 21
f 7 10 20
f 20 24 23
f 23 22 20
f 20 26 25
f 25 24 20
f 27 26 20
f 20 15 11
f 14 12 20
f 20 76 14
f 20 29 17
f 20 12 29
f 11 8 20
f 20 79 78
f 20 72 71
f 67 66 20
f 20 71 77
f 20 65 70
f 70 72 20
f 20 8 7
f 16 15 20
f 20 21 57
f 57 58 20
f 20 58 56
f 56 16 20
f 41 40 59
f 59 42 41
f 59 39 38
f 59 40 39
f 92 44 59
f 59 43 42
f 44 43 59
f 48 101 59
f 106 105 59
f 104 115 59
f 115 114 59
f 59 105 104
f 59 101 106
f 59 53 50
f 50 49 59
f 59 49 48
f 33 32 59
f 59 32 53
f 38 33 59
f 59 114 112
f 110 109 59
f 109 103 59
f 59 113 110
f 112 111 59
f 59 111 113
f 59 103 102
f 102 108 59
f 59 107 117
f 59 90 89
f 117 116 59
f 108 107 59
f 100 99 59
f 99 98 59
f 59 116 100
f 95 91 59
f 91 90 59
f 59 98 95
f 59 93 92
f 59 94 93
f 96 94 59
f 89 97 59
f 59 97 96
f 54 33 38
f 54 34 31
f 54 58 57
f 38 46 54
f 57 52 54
f 54 45 36
f 54 52 51
f 51 45 54
f 46 55 54
f 56 58 54
f 54 30 33
f 36 35 54
f 54 35 34
f 31 30 54
f 54 15 16
f 54 16 56
f 54 55 11
f 11 15 54
