# https://github.com/mikedh/trimesh
v 0.01036810 -0.01705981 -0.07749990
v 0.01029031 -0.01682894 -0.07749990
v 0.00956175 -0.01587054 -0.07749990
v 0.00936011 -0.01573382 -0.07749990
v 0.00771643 -0.01546436 -0.07749990
v 0.00748168 -0.01552953 -0.07749990
v 0.00725536 -0.01561971 -0.07749990
v 0.00683847 -0.01587054 -0.07749990
v 0.00665279 -0.01602826 -0.07749990
v 0.00648524 -0.01620513 -0.07749990
v 0.00633781 -0.01639908 -0.07749990
v 0.00621221 -0.01660783 -0.07749990
v 0.00610991 -0.01682894 -0.07749990
v 0.01044681 -0.01778357 -0.07749990
v 0.01044681 -0.01753994 -0.07749990
v 0.01042047 -0.01729774 -0.07749990
v 0.00991497 -0.01620513 -0.07749990
v 0.00974743 -0.01602826 -0.07749990
v 0.00914486 -0.01561971 -0.07749990
v 0.00704011 -0.01573382 -0.07749990
v 0.00603212 -0.01705981 -0.07749990
v 0.00597975 -0.01729774 -0.07749990
v 0.01018801 -0.01660783 -0.07749990
v 0.01006241 -0.01639908 -0.07749990
v 0.00868379 -0.01546436 -0.07749990
v 0.00844338 -0.01542494 -0.07749990
v 0.00820011 -0.01541175 -0.07749990
v 0.00795684 -0.01542494 -0.07749990
v 0.00891854 -0.01552953 -0.07749990
v 0.00595341 -0.01753994 -0.07749990
v 0.01029031 -0.01682894 -0.07249991
v 0.01036810 -0.01705981 -0.07249991
v 0.01042047 -0.01729774 -0.07249991
v 0.01044681 -0.01753994 -0.07249991
v 0.01006241 -0.01639908 -0.07249991
v 0.01018801 -0.01660783 -0.07249991
v 0.00595341 -0.01753994 -0.07249991
v 0.00597975 -0.01729774 -0.07249991
v 0.00683847 -0.01587054 -0.07249991
v 0.00704011 -0.01573382 -0.07249991
v 0.00603212 -0.01705981 -0.07249991
v 0.00665279 -0.01602826 -0.07249991
v 0.00610991 -0.01682894 -0.07249991
v 0.00621221 -0.01660783 -0.07249991
v 0.00633781 -0.01639908 -0.07249991
v 0.00648524 -0.01620513 -0.07249991
v 0.00725536 -0.01561971 -0.07249991
v 0.00748168 -0.01552953 -0.07249991
v 0.00771643 -0.01546436 -0.07249991
v 0.00974743 -0.01602826 -0.07249991
v 0.00991497 -0.01620513 -0.07249991
v 0.00795684 -0.01542494 -0.07249991
v 0.00891854 -0.01552953 -0.07249991
v 0.00914486 -0.01561971 -0.07249991
v 0.00936011 -0.01573382 -0.07249991
v 0.00956175 -0.01587054 -0.07249991
v 0.00868379 -0.01546436 -0.07249991
v 0.00820011 -0.01541175 -0.07249991
v 0.00844338 -0.01542494 -0.07249991
v 0.01036810 -0.06521369 -0.07749990
v 0.01042047 -0.06497576 -0.07749990
v 0.01006241 -0.06587442 -0.07749990
v 0.01018801 -0.06566567 -0.07749990
v 0.01029031 -0.06544456 -0.07749990
v 0.01044681 -0.06473357 -0.07749990
v 0.00665279 -0.06624524 -0.07749990
v 0.00683847 -0.06640296 -0.07749990
v 0.00704011 -0.06653968 -0.07749990
v 0.00936011 -0.06653968 -0.07749990
v 0.00956175 -0.06640296 -0.07749990
v 0.00974743 -0.06624524 -0.07749990
v 0.00991497 -0.06606837 -0.07749990
v 0.00597975 -0.06497576 -0.07749990
v 0.00603212 -0.06521369 -0.07749990
v 0.00610991 -0.06544456 -0.07749990
v 0.00633781 -0.06587442 -0.07749990
v 0.00648524 -0.06606837 -0.07749990
v 0.00725536 -0.06665380 -0.07749990
v 0.00748168 -0.06674397 -0.07749990
v 0.00771643 -0.06680915 -0.07749990
v 0.00595341 -0.06448994 -0.07749990
v 0.00595341 -0.06473357 -0.07749990
v 0.00621221 -0.06566567 -0.07749990
v 0.00795684 -0.06684856 -0.07749990
v 0.00820011 -0.06686175 -0.07749990
v 0.00844338 -0.06684856 -0.07749990
v 0.00868379 -0.06680915 -0.07749990
v 0.00891854 -0.06674397 -0.07749990
v 0.00914486 -0.06665380 -0.07749990
v 0.01044681 -0.06473357 -0.07249991
v 0.01042047 -0.06497576 -0.07249991
v 0.01036810 -0.06521369 -0.07249991
v 0.01029031 -0.06544456 -0.07249991
v 0.01018801 -0.06566567 -0.07249991
v 0.01006241 -0.06587442 -0.07249991
v 0.00991497 -0.06606837 -0.07249991
v 0.00603212 -0.06521369 -0.07249991
v 0.00597975 -0.06497576 -0.07249991
v 0.00974743 -0.06624524 -0.07249991
v 0.00956175 -0.06640296 -0.07249991
v 0.00936011 -0.06653968 -0.07249991
v 0.00914486 -0.06665380 -0.07249991
v 0.00595341 -0.06473357 -0.07249991
v 0.00891854 -0.06674397 -0.07249991
v 0.00868379 -0.06680915 -0.07249991
v 0.00844338 -0.06684856 -0.07249991
v 0.00820011 -0.06686175 -0.07249991
v 0.00795684 -0.06684856 -0.07249991
v 0.00771643 -0.06680915 -0.07249991
v 0.00748168 -0.06674397 -0.07249991
v 0.00725536 -0.06665380 -0.07249991
v 0.00683847 -0.06640296 -0.07249991
v 0.00665279 -0.06624524 -0.07249991
v 0.00648524 -0.06606837 -0.07249991
v 0.00633781 -0.06587442 -0.07249991
v 0.00621221 -0.06566567 -0.07249991
v 0.00610991 -0.06544456 -0.07249991
v 0.00704011 -0.06653968 -0.07249991
f 1 16 15
f 37 103 38
f 26 65 81
f 81 30 26
f 14 65 26
f 106 85 86
f 107 85 106
f 15 90 65
f 15 34 90
f 34 15 33
f 33 15 16
f 17 18 51
f 51 18 50
f 82 37 30
f 82 103 37
f 84 85 108
f 108 85 107
f 30 37 38
f 38 22 30
f 12 13 43
f 44 12 43
f 21 12 30
f 30 22 21
f 21 13 12
f 22 38 21
f 21 38 41
f 41 43 21
f 21 43 13
f 105 86 87
f 105 106 86
f 32 33 16
f 32 16 1
f 90 34 32
f 34 33 32
f 2 32 1
f 31 32 2
f 117 97 74
f 75 117 74
f 103 82 98
f 98 82 73
f 73 74 98
f 98 74 97
f 111 78 79
f 79 110 111
f 52 28 5
f 5 49 52
f 11 12 44
f 44 45 11
f 11 26 30
f 30 12 11
f 11 27 26
f 11 9 8
f 5 28 11
f 11 6 5
f 28 27 11
f 8 20 11
f 10 9 11
f 11 20 7
f 7 6 11
f 8 9 42
f 42 39 8
f 57 25 26
f 26 59 57
f 101 69 70
f 70 100 101
f 89 69 101
f 102 89 101
f 114 113 101
f 111 110 101
f 101 110 109
f 101 38 103
f 109 108 101
f 103 98 101
f 101 115 114
f 101 97 117
f 101 118 111
f 117 116 101
f 101 104 102
f 101 32 38
f 101 108 107
f 107 106 101
f 106 105 101
f 100 32 101
f 101 116 115
f 101 98 97
f 101 113 112
f 112 118 101
f 105 104 101
f 65 90 91
f 91 61 65
f 60 61 91
f 91 92 60
f 63 64 93
f 93 94 63
f 93 64 60
f 60 92 93
f 94 95 62
f 63 94 62
f 72 62 96
f 96 62 95
f 17 51 35
f 35 24 17
f 83 116 117
f 83 117 75
f 115 116 83
f 83 76 115
f 84 108 80
f 80 108 109
f 109 110 80
f 110 79 80
f 112 113 66
f 67 112 66
f 68 118 112
f 68 112 67
f 68 78 111
f 111 118 68
f 40 20 8
f 8 39 40
f 7 20 40
f 47 7 40
f 26 27 58
f 58 59 26
f 58 27 28
f 28 52 58
f 48 6 7
f 48 7 47
f 48 49 5
f 5 6 48
f 46 11 45
f 10 11 46
f 46 9 10
f 46 42 9
f 19 29 53
f 53 54 19
f 53 29 25
f 25 57 53
f 14 26 4
f 4 2 1
f 4 15 14
f 4 18 17
f 4 29 19
f 1 15 4
f 26 25 4
f 17 24 4
f 23 2 4
f 4 24 23
f 25 29 4
f 4 3 18
f 50 18 56
f 18 3 56
f 88 105 87
f 88 104 105
f 102 104 88
f 88 89 102
f 99 95 94
f 94 93 99
f 99 32 100
f 99 91 90
f 90 32 99
f 92 91 99
f 99 93 92
f 99 96 95
f 70 71 99
f 99 100 70
f 99 71 72
f 72 96 99
f 31 2 36
f 36 2 23
f 23 24 36
f 24 35 36
f 81 65 77
f 75 74 77
f 77 82 81
f 77 85 84
f 65 61 77
f 87 86 77
f 70 69 77
f 63 62 77
f 77 64 63
f 86 85 77
f 77 68 67
f 77 71 70
f 77 79 78
f 73 82 77
f 67 66 77
f 77 69 89
f 77 61 60
f 72 71 77
f 60 64 77
f 84 80 77
f 77 74 73
f 77 83 75
f 77 62 72
f 76 83 77
f 77 80 79
f 77 88 87
f 78 68 77
f 89 88 77
f 114 115 77
f 115 76 77
f 77 113 114
f 77 66 113
f 50 56 55
f 38 32 55
f 55 40 39
f 55 45 44
f 44 43 55
f 41 38 55
f 55 43 41
f 59 58 55
f 55 57 59
f 55 32 31
f 54 53 55
f 39 42 55
f 55 51 50
f 55 52 49
f 55 48 47
f 55 46 45
f 55 35 51
f 47 40 55
f 55 58 52
f 49 48 55
f 42 46 55
f 55 53 57
f 31 36 55
f 55 36 35
f 19 54 55
f 55 4 19
f 3 4 55
f 55 56 3
