# https://github.com/mikedh/trimesh
v 0.01351833 0.01552955 -0.07749990
v 0.01374465 0.01561973 -0.07749990
v 0.01395990 0.01573384 -0.07749990
v 0.01416154 0.01587056 -0.07749990
v 0.01434722 0.01602828 -0.07749990
v 0.01451476 0.01620515 -0.07749990
v 0.01466220 0.01639910 -0.07749990
v 0.01478780 0.01660785 -0.07749990
v 0.01489010 0.01682896 -0.07749990
v 0.01496789 0.01705983 -0.07749990
v 0.01502026 0.01729776 -0.07749990
v 0.01504660 0.01753996 -0.07749990
v 0.01093760 0.01639910 -0.07749990
v 0.01108504 0.01620515 -0.07749990
v 0.01143826 0.01587056 -0.07749990
v 0.01163990 0.01573384 -0.07749990
v 0.01081200 0.01660785 -0.07749990
v 0.01185515 0.01561973 -0.07749990
v 0.01208147 0.01552955 -0.07749990
v 0.01231622 0.01546437 -0.07749990
v 0.01304317 0.01542496 -0.07749990
v 0.01328358 0.01546437 -0.07749990
v 0.01063191 0.01705983 -0.07749990
v 0.01070970 0.01682896 -0.07749990
v 0.01125258 0.01602828 -0.07749990
v 0.01055320 0.01778358 -0.07749990
v 0.01055320 0.01753996 -0.07749990
v 0.01057954 0.01729776 -0.07749990
v 0.01279990 0.01541177 -0.07749990
v 0.01255663 0.01542496 -0.07749990
v 0.01478780 0.01660785 -0.07249991
v 0.01466220 0.01639910 -0.07249991
v 0.01451476 0.01620515 -0.07249991
v 0.01434722 0.01602828 -0.07249991
v 0.01163990 0.01573384 -0.07249991
v 0.01143826 0.01587056 -0.07249991
v 0.01125258 0.01602828 -0.07249991
v 0.01093760 0.01639910 -0.07249991
v 0.01081200 0.01660785 -0.07249991
v 0.01070970 0.01682896 -0.07249991
v 0.01504660 0.01753996 -0.07249991
v 0.01502026 0.01729776 -0.07249991
v 0.01496789 0.01705983 -0.07249991
v 0.01489010 0.01682896 -0.07249991
v 0.01231622 0.01546437 -0.07249991
v 0.01208147 0.01552955 -0.07249991
v 0.01185515 0.01561973 -0.07249991
v 0.01108504 0.01620515 -0.07249991
v 0.01063191 0.01705983 -0.07249991
v 0.01055320 0.01753996 -0.07249991
v 0.01057954 0.01729776 -0.07249991
v 0.01416154 0.01587056 -0.07249991
v 0.01395990 0.01573384 -0.07249991
v 0.01374465 0.01561973 -0.07249991
v 0.01351833 0.01552955 -0.07249991
v 0.01328358 0.01546437 -0.07249991
v 0.01304317 0.01542496 -0.07249991
v 0.01279990 0.01541177 -0.07249991
v 0.01255663 0.01542496 -0.07249991
v 0.01478780 0.06566569 -0.07749990
v 0.01466220 0.06587444 -0.07749990
v 0.01451476 0.06606839 -0.07749990
v 0.01489010 0.06544458 -0.07749990
v 0.01502026 0.06497578 -0.07749990
v 0.01496789 0.06521371 -0.07749990
v 0.01434722 0.06624526 -0.07749990
v 0.01416154 0.06640298 -0.07749990
v 0.01395990 0.06653970 -0.07749990
v 0.01504660 0.06448996 -0.07749990
v 0.01504660 0.06473358 -0.07749990
v 0.01374465 0.06665382 -0.07749990
v 0.01351833 0.06674399 -0.07749990
v 0.01328358 0.06680917 -0.07749990
v 0.01304317 0.06684858 -0.07749990
v 0.01081200 0.06566569 -0.07749990
v 0.01070970 0.06544458 -0.07749990
v 0.01063191 0.06521371 -0.07749990
v 0.01057954 0.06497578 -0.07749990
v 0.01163990 0.06653970 -0.07749990
v 0.01143826 0.06640298 -0.07749990
v 0.01055320 0.06473358 -0.07749990
v 0.01185515 0.06665382 -0.07749990
v 0.01279990 0.06686177 -0.07749990
v 0.01255663 0.06684858 -0.07749990
v 0.01231622 0.06680917 -0.07749990
v 0.01208147 0.06674399 -0.07749990
v 0.01125258 0.06624526 -0.07749990
v 0.01108504 0.06606839 -0.07749990
v 0.01093760 0.06587444 -0.07749990
v 0.01451476 0.06606839 -0.07249991
v 0.01466220 0.06587444 -0.07249991
v 0.01478780 0.06566569 -0.07249991
v 0.01489010 0.06544458 -0.07249991
v 0.01416154 0.06640298 -0.07249991
v 0.01434722 0.06624526 -0.07249991
v 0.01496789 0.06521371 -0.07249991
v 0.01502026 0.06497578 -0.07249991
v 0.01070970 0.06544458 -0.07249991
v 0.01081200 0.06566569 -0.07249991
v 0.01093760 0.06587444 -0.07249991
v 0.01108504 0.06606839 -0.07249991
v 0.01125258 0.06624526 -0.07249991
v 0.01504660 0.06473358 -0.07249991
v 0.01057954 0.06497578 -0.07249991
v 0.01063191 0.06521371 -0.07249991
v 0.01055320 0.06473358 -0.07249991
v 0.01143826 0.06640298 -0.07249991
v 0.01163990 0.06653970 -0.07249991
v 0.01185515 0.06665382 -0.07249991
v 0.01208147 0.06674399 -0.07249991
v 0.01231622 0.06680917 -0.07249991
v 0.01255663 0.06684858 -0.07249991
v 0.01328358 0.06680917 -0.07249991
v 0.01351833 0.06674399 -0.07249991
v 0.01374465 0.06665382 -0.07249991
v 0.01395990 0.06653970 -0.07249991
v 0.01279990 0.06686177 -0.07249991
v 0.01304317 0.06684858 -0.07249991
f 115 94 116
f 107 109 108
f 118 73 74
f 113 73 118
f 94 66 67
f 95 66 94
f 15 36 37
f 37 25 15
f 10 43 44
f 44 9 10
f 55 46 45
f 55 59 58
f 45 59 55
f 58 57 55
f 55 57 56
f 34 52 4
f 4 5 34
f 111 112 84
f 84 85 111
f 103 70 64
f 64 97 103
f 103 12 69
f 103 41 12
f 69 70 103
f 62 66 90
f 90 66 95
f 114 73 113
f 114 72 73
f 71 72 114
f 114 115 71
f 40 49 23
f 24 40 23
f 28 23 51
f 51 23 49
f 58 59 30
f 30 29 58
f 30 59 45
f 45 20 30
f 19 46 47
f 47 18 19
f 45 46 19
f 19 20 45
f 25 20 16
f 16 15 25
f 16 19 18
f 20 19 16
f 47 35 16
f 16 18 47
f 36 15 16
f 16 35 36
f 75 98 99
f 75 76 98
f 81 106 78
f 106 104 78
f 80 87 102
f 107 80 102
f 102 87 88
f 88 101 102
f 12 41 11
f 41 42 11
f 43 10 11
f 11 42 43
f 34 5 6
f 6 33 34
f 32 33 6
f 6 7 32
f 8 5 12
f 12 11 8
f 8 10 9
f 8 6 5
f 8 11 10
f 7 6 8
f 8 9 44
f 44 31 8
f 8 31 32
f 32 7 8
f 12 5 21
f 69 12 21
f 21 81 69
f 26 81 21
f 21 20 26
f 29 30 21
f 5 22 21
f 21 30 20
f 21 57 58
f 58 29 21
f 56 57 21
f 21 22 56
f 54 55 1
f 1 2 54
f 1 55 56
f 56 22 1
f 3 22 5
f 5 4 3
f 2 1 3
f 3 1 22
f 3 53 54
f 54 2 3
f 3 4 52
f 52 53 3
f 83 118 74
f 117 118 83
f 83 84 112
f 83 112 117
f 96 65 63
f 63 93 96
f 96 97 64
f 64 65 96
f 63 60 92
f 92 93 63
f 41 103 92
f 92 42 41
f 43 42 92
f 92 103 97
f 97 96 92
f 92 31 44
f 44 43 92
f 92 96 93
f 61 65 62
f 61 60 63
f 63 65 61
f 62 90 61
f 61 90 91
f 61 92 60
f 91 92 61
f 116 68 71
f 71 115 116
f 116 94 67
f 67 68 116
f 50 81 26
f 50 106 81
f 26 27 50
f 50 27 28
f 28 51 50
f 106 50 39
f 39 38 98
f 39 104 106
f 105 104 39
f 39 98 105
f 39 50 51
f 39 49 40
f 39 51 49
f 89 101 88
f 89 100 101
f 89 75 99
f 99 100 89
f 105 98 77
f 98 76 77
f 77 104 105
f 77 78 104
f 108 80 107
f 108 79 80
f 82 79 108
f 108 109 82
f 69 81 86
f 86 87 80
f 71 68 86
f 86 72 71
f 74 73 86
f 86 83 74
f 86 70 69
f 81 78 86
f 62 65 86
f 86 66 62
f 75 89 86
f 64 70 86
f 67 66 86
f 73 72 86
f 88 87 86
f 85 84 86
f 86 65 64
f 86 68 67
f 80 79 86
f 84 83 86
f 86 79 82
f 78 77 86
f 86 89 88
f 76 75 86
f 86 77 76
f 111 85 86
f 86 110 111
f 109 110 86
f 82 109 86
f 46 55 48
f 98 38 48
f 36 35 48
f 91 90 48
f 48 52 34
f 37 36 48
f 48 35 47
f 47 46 48
f 34 33 48
f 31 92 48
f 32 31 48
f 48 33 32
f 54 53 48
f 48 53 52
f 48 55 54
f 107 102 48
f 48 109 107
f 48 110 109
f 111 110 48
f 48 112 111
f 99 98 48
f 48 102 101
f 101 100 48
f 48 100 99
f 48 94 115
f 117 112 48
f 48 118 117
f 115 114 48
f 48 114 113
f 113 118 48
f 48 90 95
f 48 92 91
f 95 94 48
f 48 25 37
f 48 14 25
f 13 14 48
f 38 13 48
f 26 20 17
f 28 27 17
f 17 27 26
f 24 23 17
f 17 20 25
f 17 23 28
f 25 14 17
f 17 14 13
f 17 40 24
f 17 39 40
f 38 39 17
f 17 13 38
